# xmcd
#
# Track frame offsets: 
#        150
#        14453
#        34711
#        53747
#        68974
#        84026
#        106852
#        119659
#        139198
#        155969
#        176682
#        192301
#        212047
#
# Disc length: 2972 seconds
#
# Revision: 0
# Processed by: cddbd v1.5.2PL0 Copyright (c) Steve Scherf et al.
# Submitted via: ExactAudioCopyFreeDBPlugin 1.0
#
DISCID=b60b9a0d
DTITLE=Emilia Lindberg - På Mitt Sätt
DYEAR=2011
DGENRE=Country
TTITLE0=Jorden Runt
TTITLE1=God On The Mountain - Gud På Höjden
TTITLE2=Aldrig Ensam Mer
TTITLE3=Min Stund På Jorden
TTITLE4=I Don't Walk (Without Jesus)
TTITLE5=Därför Har Jag Jesus Kär
TTITLE6=Mama Say A Prayer
TTITLE7=Min Kung Och Jag
TTITLE8=En Vanlig Dag
TTITLE9=Jesus Hjälp Mig
TTITLE10=Never Been This Homesick Before
TTITLE11=Jag Håller Kvar
TTITLE12=Vi Ses I Himlen
EXTD=
EXTT0=
EXTT1=
EXTT2=
EXTT3=
EXTT4=
EXTT5=
EXTT6=
EXTT7=
EXTT8=
EXTT9=
EXTT10=
EXTT11=
EXTT12=
PLAYORDER=
